<mxfile host="app.diagrams.net" agent="Mozilla/5.0 (X11; CrOS x86_64 14541.0.0) AppleWebKit/537.36 (KHTML, like Gecko) Chrome/130.0.0.0 Safari/537.36" version="25.0.3">
  <diagram id="prtHgNgQTEPvFCAcTncT" name="Page-1">
    <mxGraphModel dx="880" dy="508" grid="1" gridSize="10" guides="1" tooltips="1" connect="1" arrows="1" fold="1" page="1" pageScale="1" pageWidth="827" pageHeight="1169" math="0" shadow="0">
      <root>
        <mxCell id="0" />
        <mxCell id="1" parent="0" />
        <mxCell id="dNxyNK7c78bLwvsdeMH5-11" value="website" style="swimlane;html=1;startSize=20;horizontal=1;containerType=tree;glass=0;" parent="1" vertex="1">
          <mxGeometry x="40" y="110" width="710" height="820" as="geometry" />
        </mxCell>
        <mxCell id="9KSsU8WKh4FUdMRR2MJ4-1" value="nav bar" style="rounded=0;whiteSpace=wrap;html=1;" vertex="1" parent="dNxyNK7c78bLwvsdeMH5-11">
          <mxGeometry y="20" width="710" height="30" as="geometry" />
        </mxCell>
        <mxCell id="9KSsU8WKh4FUdMRR2MJ4-2" value="image slide show&amp;nbsp;" style="rounded=0;whiteSpace=wrap;html=1;" vertex="1" parent="dNxyNK7c78bLwvsdeMH5-11">
          <mxGeometry y="80" width="710" height="160" as="geometry" />
        </mxCell>
        <mxCell id="9KSsU8WKh4FUdMRR2MJ4-3" value="&lt;h1 style=&quot;margin-top: 0px;&quot;&gt;Heading&lt;/h1&gt;&lt;p&gt;Lorem ipsum dolor sit amet, consectetur adipisicing elit, sed do eiusmod tempor incididunt ut labore et dolore magna aliqua.&lt;/p&gt;" style="text;html=1;whiteSpace=wrap;overflow=hidden;rounded=0;" vertex="1" parent="dNxyNK7c78bLwvsdeMH5-11">
          <mxGeometry x="500" y="255" width="180" height="120" as="geometry" />
        </mxCell>
        <mxCell id="9KSsU8WKh4FUdMRR2MJ4-5" value="self image" style="rounded=0;whiteSpace=wrap;html=1;" vertex="1" parent="dNxyNK7c78bLwvsdeMH5-11">
          <mxGeometry x="380" y="260" width="120" height="110" as="geometry" />
        </mxCell>
        <mxCell id="9KSsU8WKh4FUdMRR2MJ4-6" value="prog lang&lt;div&gt;picture&lt;/div&gt;" style="ellipse;whiteSpace=wrap;html=1;" vertex="1" parent="dNxyNK7c78bLwvsdeMH5-11">
          <mxGeometry x="120" y="260" width="60" height="60" as="geometry" />
        </mxCell>
        <mxCell id="9KSsU8WKh4FUdMRR2MJ4-11" value="prog lang&lt;div&gt;picture&lt;/div&gt;" style="ellipse;whiteSpace=wrap;html=1;" vertex="1" parent="dNxyNK7c78bLwvsdeMH5-11">
          <mxGeometry x="70" y="300" width="80" height="80" as="geometry" />
        </mxCell>
        <mxCell id="9KSsU8WKh4FUdMRR2MJ4-10" value="prog lang&lt;div&gt;picture&lt;/div&gt;" style="ellipse;whiteSpace=wrap;html=1;" vertex="1" parent="dNxyNK7c78bLwvsdeMH5-11">
          <mxGeometry x="40" y="350" width="60" height="60" as="geometry" />
        </mxCell>
        <mxCell id="9KSsU8WKh4FUdMRR2MJ4-9" value="prog lang&lt;div&gt;picture&lt;/div&gt;" style="ellipse;whiteSpace=wrap;html=1;" vertex="1" parent="dNxyNK7c78bLwvsdeMH5-11">
          <mxGeometry x="40" y="270" width="60" height="60" as="geometry" />
        </mxCell>
        <mxCell id="9KSsU8WKh4FUdMRR2MJ4-8" value="Logo" style="ellipse;whiteSpace=wrap;html=1;" vertex="1" parent="dNxyNK7c78bLwvsdeMH5-11">
          <mxGeometry x="334" y="50" width="50" height="50" as="geometry" />
        </mxCell>
        <mxCell id="9KSsU8WKh4FUdMRR2MJ4-7" value="prog lang&lt;div&gt;picture&lt;/div&gt;" style="ellipse;whiteSpace=wrap;html=1;" vertex="1" parent="dNxyNK7c78bLwvsdeMH5-11">
          <mxGeometry x="130" y="340" width="60" height="60" as="geometry" />
        </mxCell>
        <mxCell id="9KSsU8WKh4FUdMRR2MJ4-14" value="make icons move/popup when cursor hovers over" style="rounded=1;whiteSpace=wrap;html=1;" vertex="1" parent="dNxyNK7c78bLwvsdeMH5-11">
          <mxGeometry x="110" y="460" width="120" height="60" as="geometry" />
        </mxCell>
        <mxCell id="9KSsU8WKh4FUdMRR2MJ4-15" style="edgeStyle=orthogonalEdgeStyle;rounded=0;orthogonalLoop=1;jettySize=auto;html=1;exitX=0.5;exitY=0;exitDx=0;exitDy=0;entryX=0.607;entryY=1.012;entryDx=0;entryDy=0;entryPerimeter=0;" edge="1" parent="dNxyNK7c78bLwvsdeMH5-11" source="9KSsU8WKh4FUdMRR2MJ4-14" target="9KSsU8WKh4FUdMRR2MJ4-11">
          <mxGeometry relative="1" as="geometry">
            <Array as="points">
              <mxPoint x="170" y="450" />
              <mxPoint x="90" y="450" />
              <mxPoint x="90" y="410" />
              <mxPoint x="119" y="410" />
            </Array>
          </mxGeometry>
        </mxCell>
        <mxCell id="9KSsU8WKh4FUdMRR2MJ4-16" value="image 1" style="rounded=0;whiteSpace=wrap;html=1;" vertex="1" parent="dNxyNK7c78bLwvsdeMH5-11">
          <mxGeometry x="90" y="560" width="120" height="60" as="geometry" />
        </mxCell>
        <mxCell id="9KSsU8WKh4FUdMRR2MJ4-17" value="image 2" style="rounded=0;whiteSpace=wrap;html=1;" vertex="1" parent="dNxyNK7c78bLwvsdeMH5-11">
          <mxGeometry x="264" y="560" width="120" height="60" as="geometry" />
        </mxCell>
        <mxCell id="9KSsU8WKh4FUdMRR2MJ4-18" value="image 3" style="rounded=0;whiteSpace=wrap;html=1;" vertex="1" parent="dNxyNK7c78bLwvsdeMH5-11">
          <mxGeometry x="440" y="560" width="120" height="60" as="geometry" />
        </mxCell>
        <mxCell id="9KSsU8WKh4FUdMRR2MJ4-19" value="Text" style="text;html=1;align=center;verticalAlign=middle;whiteSpace=wrap;rounded=0;" vertex="1" parent="dNxyNK7c78bLwvsdeMH5-11">
          <mxGeometry x="120" y="620" width="60" height="30" as="geometry" />
        </mxCell>
        <mxCell id="9KSsU8WKh4FUdMRR2MJ4-20" value="Text" style="text;html=1;align=center;verticalAlign=middle;whiteSpace=wrap;rounded=0;" vertex="1" parent="dNxyNK7c78bLwvsdeMH5-11">
          <mxGeometry x="290" y="620" width="60" height="30" as="geometry" />
        </mxCell>
        <mxCell id="9KSsU8WKh4FUdMRR2MJ4-21" value="Text" style="text;html=1;align=center;verticalAlign=middle;whiteSpace=wrap;rounded=0;" vertex="1" parent="dNxyNK7c78bLwvsdeMH5-11">
          <mxGeometry x="470" y="620" width="60" height="30" as="geometry" />
        </mxCell>
        <mxCell id="9KSsU8WKh4FUdMRR2MJ4-24" value="" style="endArrow=none;html=1;rounded=0;" edge="1" parent="dNxyNK7c78bLwvsdeMH5-11">
          <mxGeometry width="50" height="50" relative="1" as="geometry">
            <mxPoint x="10" y="410" as="sourcePoint" />
            <mxPoint x="690" y="410" as="targetPoint" />
          </mxGeometry>
        </mxCell>
        <mxCell id="9KSsU8WKh4FUdMRR2MJ4-12" value="add seamless scrolling feature&amp;nbsp;" style="rounded=1;whiteSpace=wrap;html=1;" vertex="1" parent="dNxyNK7c78bLwvsdeMH5-11">
          <mxGeometry x="310" y="460" width="120" height="60" as="geometry" />
        </mxCell>
        <mxCell id="9KSsU8WKh4FUdMRR2MJ4-25" value="button&lt;span style=&quot;color: rgba(0, 0, 0, 0); font-family: monospace; font-size: 0px; text-align: start; text-wrap-mode: nowrap;&quot;&gt;%3CmxGraphModel%3E%3Croot%3E%3CmxCell%20id%3D%220%22%2F%3E%3CmxCell%20id%3D%221%22%20parent%3D%220%22%2F%3E%3CmxCell%20id%3D%222%22%20value%3D%22prog%20lang%26lt%3Bdiv%26gt%3Bpicture%26lt%3B%2Fdiv%26gt%3B%22%20style%3D%22ellipse%3BwhiteSpace%3Dwrap%3Bhtml%3D1%3B%22%20vertex%3D%221%22%20parent%3D%221%22%3E%3CmxGeometry%20x%3D%22190%22%20y%3D%22330%22%20width%3D%2280%22%20height%3D%2280%22%20as%3D%22geometry%22%2F%3E%3C%2FmxCell%3E%3C%2Froot%3E%3C%2FmxGraphModel%3E&lt;/span&gt;" style="rounded=1;whiteSpace=wrap;html=1;" vertex="1" parent="dNxyNK7c78bLwvsdeMH5-11">
          <mxGeometry x="125" y="650" width="50" height="15" as="geometry" />
        </mxCell>
        <mxCell id="9KSsU8WKh4FUdMRR2MJ4-27" value="button&lt;span style=&quot;color: rgba(0, 0, 0, 0); font-family: monospace; font-size: 0px; text-align: start; text-wrap-mode: nowrap;&quot;&gt;%3CmxGraphModel%3E%3Croot%3E%3CmxCell%20id%3D%220%22%2F%3E%3CmxCell%20id%3D%221%22%20parent%3D%220%22%2F%3E%3CmxCell%20id%3D%222%22%20value%3D%22prog%20lang%26lt%3Bdiv%26gt%3Bpicture%26lt%3B%2Fdiv%26gt%3B%22%20style%3D%22ellipse%3BwhiteSpace%3Dwrap%3Bhtml%3D1%3B%22%20vertex%3D%221%22%20parent%3D%221%22%3E%3CmxGeometry%20x%3D%22190%22%20y%3D%22330%22%20width%3D%2280%22%20height%3D%2280%22%20as%3D%22geometry%22%2F%3E%3C%2FmxCell%3E%3C%2Froot%3E%3C%2FmxGraphModel%3E&lt;/span&gt;" style="rounded=1;whiteSpace=wrap;html=1;" vertex="1" parent="dNxyNK7c78bLwvsdeMH5-11">
          <mxGeometry x="480" y="650" width="50" height="15" as="geometry" />
        </mxCell>
        <mxCell id="9KSsU8WKh4FUdMRR2MJ4-26" value="button&lt;span style=&quot;color: rgba(0, 0, 0, 0); font-family: monospace; font-size: 0px; text-align: start; text-wrap-mode: nowrap;&quot;&gt;%3CmxGraphModel%3E%3Croot%3E%3CmxCell%20id%3D%220%22%2F%3E%3CmxCell%20id%3D%221%22%20parent%3D%220%22%2F%3E%3CmxCell%20id%3D%222%22%20value%3D%22prog%20lang%26lt%3Bdiv%26gt%3Bpicture%26lt%3B%2Fdiv%26gt%3B%22%20style%3D%22ellipse%3BwhiteSpace%3Dwrap%3Bhtml%3D1%3B%22%20vertex%3D%221%22%20parent%3D%221%22%3E%3CmxGeometry%20x%3D%22190%22%20y%3D%22330%22%20width%3D%2280%22%20height%3D%2280%22%20as%3D%22geometry%22%2F%3E%3C%2FmxCell%3E%3C%2Froot%3E%3C%2FmxGraphModel%3E&lt;/span&gt;" style="rounded=1;whiteSpace=wrap;html=1;" vertex="1" parent="dNxyNK7c78bLwvsdeMH5-11">
          <mxGeometry x="295" y="650" width="50" height="15" as="geometry" />
        </mxCell>
        <mxCell id="9KSsU8WKh4FUdMRR2MJ4-32" value="quotes" style="whiteSpace=wrap;html=1;aspect=fixed;" vertex="1" parent="dNxyNK7c78bLwvsdeMH5-11">
          <mxGeometry x="520" y="430" width="80" height="80" as="geometry" />
        </mxCell>
        <mxCell id="9KSsU8WKh4FUdMRR2MJ4-33" value="" style="endArrow=none;html=1;rounded=0;" edge="1" parent="dNxyNK7c78bLwvsdeMH5-11">
          <mxGeometry width="50" height="50" relative="1" as="geometry">
            <mxPoint y="700" as="sourcePoint" />
            <mxPoint x="710" y="700" as="targetPoint" />
          </mxGeometry>
        </mxCell>
        <mxCell id="9KSsU8WKh4FUdMRR2MJ4-34" value="&lt;h1 style=&quot;margin-top: 0px;&quot;&gt;Heading&lt;/h1&gt;&lt;p&gt;&lt;br&gt;&lt;/p&gt;" style="text;html=1;whiteSpace=wrap;overflow=hidden;rounded=0;" vertex="1" parent="dNxyNK7c78bLwvsdeMH5-11">
          <mxGeometry x="510" y="700" width="180" height="120" as="geometry" />
        </mxCell>
        <mxCell id="9KSsU8WKh4FUdMRR2MJ4-35" value="Text" style="text;html=1;align=center;verticalAlign=middle;whiteSpace=wrap;rounded=0;" vertex="1" parent="dNxyNK7c78bLwvsdeMH5-11">
          <mxGeometry x="285" y="720" width="60" height="30" as="geometry" />
        </mxCell>
        <mxCell id="9KSsU8WKh4FUdMRR2MJ4-36" value="Text" style="text;html=1;align=center;verticalAlign=middle;whiteSpace=wrap;rounded=0;" vertex="1" parent="dNxyNK7c78bLwvsdeMH5-11">
          <mxGeometry x="50" y="720" width="60" height="30" as="geometry" />
        </mxCell>
        <mxCell id="9KSsU8WKh4FUdMRR2MJ4-37" value="List Item" style="text;strokeColor=none;fillColor=none;align=left;verticalAlign=middle;spacingLeft=4;spacingRight=4;overflow=hidden;points=[[0,0.5],[1,0.5]];portConstraint=eastwest;rotatable=0;whiteSpace=wrap;html=1;" vertex="1" parent="dNxyNK7c78bLwvsdeMH5-11">
          <mxGeometry x="40" y="760" width="80" height="30" as="geometry" />
        </mxCell>
        <mxCell id="9KSsU8WKh4FUdMRR2MJ4-38" value="List Item" style="text;strokeColor=none;fillColor=none;align=left;verticalAlign=middle;spacingLeft=4;spacingRight=4;overflow=hidden;points=[[0,0.5],[1,0.5]];portConstraint=eastwest;rotatable=0;whiteSpace=wrap;html=1;" vertex="1" parent="dNxyNK7c78bLwvsdeMH5-11">
          <mxGeometry x="294" y="760" width="80" height="30" as="geometry" />
        </mxCell>
        <mxCell id="9KSsU8WKh4FUdMRR2MJ4-13" style="edgeStyle=orthogonalEdgeStyle;rounded=0;orthogonalLoop=1;jettySize=auto;html=1;exitX=0.5;exitY=0;exitDx=0;exitDy=0;" edge="1" parent="1" source="9KSsU8WKh4FUdMRR2MJ4-12">
          <mxGeometry relative="1" as="geometry">
            <mxPoint x="400" y="540" as="targetPoint" />
          </mxGeometry>
        </mxCell>
        <mxCell id="9KSsU8WKh4FUdMRR2MJ4-23" style="edgeStyle=orthogonalEdgeStyle;rounded=0;orthogonalLoop=1;jettySize=auto;html=1;exitX=0;exitY=0.5;exitDx=0;exitDy=0;" edge="1" parent="1" source="9KSsU8WKh4FUdMRR2MJ4-22">
          <mxGeometry relative="1" as="geometry">
            <mxPoint x="750" y="520" as="targetPoint" />
          </mxGeometry>
        </mxCell>
        <mxCell id="9KSsU8WKh4FUdMRR2MJ4-22" value="end page here" style="rounded=1;whiteSpace=wrap;html=1;" vertex="1" parent="1">
          <mxGeometry x="770" y="490" width="120" height="60" as="geometry" />
        </mxCell>
      </root>
    </mxGraphModel>
  </diagram>
</mxfile>
